<svg width="12" height="12" viewBox="0 0 12 12" fill="none" xmlns="http://www.w3.org/2000/svg">
<path d="M6 0.6C6 0.268629 6.26932 -0.00311085 6.59904 0.0299676C7.81127 0.151584 8.96307 0.640183 9.89669 1.43756C10.983 2.36538 11.7026 3.65036 11.9261 5.06139C12.1496 6.47242 11.8623 7.91689 11.1158 9.13499C10.3694 10.3531 9.2128 11.2649 7.8541 11.7063C6.4954 12.1478 5.02377 12.09 3.7039 11.5433C2.38403 10.9966 1.30254 9.99685 0.65396 8.72394C0.00538103 7.45103 -0.167724 5.98847 0.165781 4.59933C0.452402 3.40547 1.09704 2.33317 2.00627 1.52225C2.25358 1.30168 2.63119 1.36322 2.82596 1.63131C3.02074 1.89939 2.95818 2.2721 2.71647 2.49878C2.03575 3.13716 1.5525 3.9636 1.33262 4.87946C1.06582 5.99078 1.2043 7.16083 1.72317 8.17915C2.24203 9.19748 3.10722 9.99725 4.16312 10.4346C5.21902 10.872 6.39632 10.9182 7.48328 10.5651C8.57024 10.2119 9.49551 9.48247 10.0927 8.50799C10.6898 7.53352 10.9197 6.37794 10.7409 5.24911C10.5621 4.12029 9.98641 3.0923 9.11735 2.35005C8.40114 1.73835 7.52441 1.35379 6.59847 1.23744C6.26968 1.19613 6 0.931371 6 0.6Z" fill="url('#paint0_angular_2589_3173')"></path>
<defs>
<radialGradient id="paint0_angular_2589_3173" cx="0" cy="0" r="1" gradientUnits="userSpaceOnUse" gradientTransform="translate(6 6) rotate(-126.469) scale(7.15017)">
<stop offset="0.0751614" stop-color="white" stop-opacity="0"></stop>
<stop offset="1" stop-color="white"></stop>
</radialGradient>
</defs>
</svg>
